<mxfile host="app.diagrams.net" agent="Mozilla/5.0 (Windows NT 10.0; Win64; x64) AppleWebKit/537.36 (KHTML, like Gecko) Chrome/127.0.0.0 Safari/537.36 OPR/113.0.0.0 (Edition std-1)" version="24.7.12">
  <diagram name="Página-1" id="x7UEEBTqwL7haxHCJ4nR">
    <mxGraphModel dx="1073" dy="451" grid="1" gridSize="10" guides="1" tooltips="1" connect="1" arrows="1" fold="1" page="1" pageScale="1" pageWidth="827" pageHeight="1169" math="0" shadow="0">
      <root>
        <mxCell id="0" />
        <mxCell id="1" parent="0" />
        <mxCell id="aw5XJDLwrmuyQb8jzKxx-1" value="Rectangulo" style="swimlane;fontStyle=1;align=center;verticalAlign=top;childLayout=stackLayout;horizontal=1;startSize=26;horizontalStack=0;resizeParent=1;resizeParentMax=0;resizeLast=0;collapsible=1;marginBottom=0;whiteSpace=wrap;html=1;" vertex="1" parent="1">
          <mxGeometry x="280" y="50" width="210" height="300" as="geometry" />
        </mxCell>
        <mxCell id="aw5XJDLwrmuyQb8jzKxx-2" value="- ancho: int&amp;nbsp;&lt;div&gt;&amp;nbsp;- altura: int&amp;nbsp;&lt;div&gt;&amp;nbsp;- colorFondo: String&amp;nbsp;&lt;div&gt;&amp;nbsp;- colorBorde: String &lt;/div&gt;&lt;/div&gt;&lt;/div&gt;" style="text;strokeColor=none;fillColor=none;align=left;verticalAlign=top;spacingLeft=4;spacingRight=4;overflow=hidden;rotatable=0;points=[[0,0.5],[1,0.5]];portConstraint=eastwest;whiteSpace=wrap;html=1;" vertex="1" parent="aw5XJDLwrmuyQb8jzKxx-1">
          <mxGeometry y="26" width="210" height="94" as="geometry" />
        </mxCell>
        <mxCell id="aw5XJDLwrmuyQb8jzKxx-3" value="" style="line;strokeWidth=1;fillColor=none;align=left;verticalAlign=middle;spacingTop=-1;spacingLeft=3;spacingRight=3;rotatable=0;labelPosition=right;points=[];portConstraint=eastwest;strokeColor=inherit;" vertex="1" parent="aw5XJDLwrmuyQb8jzKxx-1">
          <mxGeometry y="120" width="210" height="8" as="geometry" />
        </mxCell>
        <mxCell id="aw5XJDLwrmuyQb8jzKxx-4" value="+ Rectangulo(ancho: int, altura: int, &amp;nbsp;colorFondo: String, colorBorde: String)&lt;div&gt;&amp;nbsp;+ cambiarTamaño(ancho: int, altura: int): void&amp;nbsp;&lt;br&gt;+ modificarColorFondo(color: String): void&amp;nbsp;&lt;br&gt;+ modificarColorBorde(color: String): void&amp;nbsp;&lt;br&gt;&amp;nbsp;+ mostrar(): void&lt;/div&gt;" style="text;strokeColor=none;fillColor=none;align=left;verticalAlign=top;spacingLeft=4;spacingRight=4;overflow=hidden;rotatable=0;points=[[0,0.5],[1,0.5]];portConstraint=eastwest;whiteSpace=wrap;html=1;" vertex="1" parent="aw5XJDLwrmuyQb8jzKxx-1">
          <mxGeometry y="128" width="210" height="172" as="geometry" />
        </mxCell>
      </root>
    </mxGraphModel>
  </diagram>
</mxfile>
